IKResults
version=1
nRows=9
nColumns=67
inDegrees=yes

Units are S.I. units (second, meters, Newtons, ...)
Angles are in degrees.

endheader
time	pelvis_tilt	pelvis_list	pelvis_rotation	pelvis_tx	pelvis_ty	pelvis_tz	hip_flexion_r	hip_adduction_r	hip_rotation_r	knee_angle_r	knee_rot_r	knee_adduc_r	ankle_angle_r	ankle_rot_r	ankle_add_r	subtalar_angle_r	mtp_angle_r	mtp_rot_r	mtp_add_r	hip_flexion_l	hip_adduction_l	hip_rotation_l	knee_angle_l	knee_rot_l	knee_adduc_l	ankle_angle_l	ankle_rot_l	ankle_add_l	subtalar_angle_l	mtp_angle_l	mtp_rot_l	mtp_add_l	lumbar_extension	lumbar_bending	lumbar_rotation	neck_flexion	neck_lateral_bending	neck_rotation	arm_flex_r	arm_add_r	arm_rot_r	elbow_flex_r	elbow_rot_r	elbow_add_r	pro_sup_r	wrist_flex_r	wrist_adduc_r	wrist_rot_r	wrist_dev_r	hand_finger_flex_r	hand_finger_adduc_r	hand_finger_rot_r	arm_flex_l	arm_add_l	arm_rot_l	elbow_flex_l	elbow_rot_l	elbow_add_l	pro_sup_l	wrist_flex_l	wrist_adduc_l	wrist_rot_l	wrist_dev_l	hand_finger_flex_l	hand_finger_adduc_l	hand_finger_rot_l
      2.47500000	     10.84200463	     13.21716904	     -8.67437158	      0.27591136	      0.73869803	      0.81546028	     -2.70018256	    -13.89008772	      8.49263075	    -62.61418793	     -5.00000000	      5.00000000	     -5.75510669	     -5.00000000	      3.42671800	     -3.16933192	     21.39101178	     -2.00000000	      2.00000000	     11.13057610	     19.87039437	      2.53396943	    -26.15939357	      5.00000000	     -0.18832976	      1.59564760	      1.88046427	      0.22530291	    -12.18997618	     22.95432438	      2.00000000	      1.93547587	    -20.41888840	    -18.39643110	     -1.57956512	      0.00000000	      0.00000000	      0.00000000	      0.00000000	      0.00000000	      0.00000000	      0.00000000	      0.00000000	      0.00000000	     -0.00042092	      0.00000000	      0.00000000	      0.00000000	      0.00000000	      0.00000000	      0.00000000	      0.00000000	      0.00000000	      0.00000000	      0.00000000	      0.00000000	      0.00000000	      0.00000000	      0.00000000	      0.00000000	      0.00000000	      0.00000000	      0.00000000	      0.00000000	      0.00000000	      0.00000000
      2.48000000	     10.91380115	     13.11617443	     -8.71329681	      0.28225095	      0.74010540	      0.81541445	     -1.59557976	    -13.77391532	      8.70732160	    -63.17193387	     -5.00000000	      5.00000000	     -5.58005311	     -5.00000000	      3.35436991	     -3.66978859	     21.40023227	     -2.00000000	      2.00000000	     10.11002183	     19.86749062	      2.60471342	    -25.57888258	      5.00000000	     -0.09852513	      2.05026864	      1.64861468	      0.19478914	    -12.04694104	     22.89625663	      2.00000000	      1.95276138	    -20.51876382	    -18.22213275	     -2.02942215	      0.00000000	      0.00000000	      0.00000000	      0.00000000	      0.00000000	      0.00000000	      0.00000000	      0.00000000	      0.00000000	     -0.00042092	      0.00000000	      0.00000000	      0.00000000	      0.00000000	      0.00000000	      0.00000000	      0.00000000	      0.00000000	      0.00000000	      0.00000000	      0.00000000	      0.00000000	      0.00000000	      0.00000000	      0.00000000	      0.00000000	      0.00000000	      0.00000000	      0.00000000	      0.00000000	      0.00000000
      2.48500000	     11.16259702	     13.10086348	     -8.76376960	      0.28860892	      0.74146354	      0.81546908	     -0.68310261	    -13.65962564	      8.97544070	    -63.74094498	     -5.00000000	      5.00000000	     -4.91693251	     -5.00000000	      2.94390893	     -6.54807393	     21.38396235	     -2.00000000	      1.99885069	      8.93808820	     19.98153383	      1.98342443	    -25.00684467	      5.00000000	      0.30536721	      2.50908256	      1.08486199	      0.34582422	    -11.46637694	     22.55573215	      2.00000000	      2.00000000	    -20.81928846	    -18.11566479	     -2.35188616	      0.00000000	      0.00000000	      0.00000000	      0.00000000	      0.00000000	      0.00000000	      0.00000000	      0.00000000	      0.00000000	     -0.00042092	      0.00000000	      0.00000000	      0.00000000	      0.00000000	      0.00000000	      0.00000000	      0.00000000	      0.00000000	      0.00000000	      0.00000000	      0.00000000	      0.00000000	      0.00000000	      0.00000000	      0.00000000	      0.00000000	      0.00000000	      0.00000000	      0.00000000	      0.00000000	      0.00000000
      2.49000000	     11.18019993	     12.90383211	     -8.72830509	      0.29501394	      0.74286439	      0.81531077	      0.39829189	    -13.47821659	      9.06100396	    -64.04363160	     -5.00000000	      5.00000000	     -4.87622767	     -5.00000000	      2.91781932	     -6.81532521	     21.37294454	     -2.00000000	      1.99941854	      7.90481140	     19.90134831	      2.10171096	    -24.35331093	      5.00000000	      0.45395814	      2.83488873	      0.91647294	      0.33714217	    -11.34813917	     22.50030914	      2.00000000	      2.00000000	    -20.88585696	    -17.76371489	     -2.60422037	      0.00000000	      0.00000000	      0.00000000	      0.00000000	      0.00000000	      0.00000000	      0.00000000	      0.00000000	      0.00000000	     -0.00042092	      0.00000000	      0.00000000	      0.00000000	      0.00000000	      0.00000000	      0.00000000	      0.00000000	      0.00000000	      0.00000000	      0.00000000	      0.00000000	      0.00000000	      0.00000000	      0.00000000	      0.00000000	      0.00000000	      0.00000000	      0.00000000	      0.00000000	      0.00000000	      0.00000000
      2.49500000	     11.46711038	     12.69143936	     -8.71384619	      0.30137752	      0.74431830	      0.81533756	      1.16202648	    -13.21098064	      9.13468089	    -64.31965259	     -5.00000000	      5.00000000	     -4.41724755	     -5.00000000	      2.74907842	     -9.01450646	     21.26147080	     -2.00000000	      1.99126105	      6.62809029	     19.83371004	      1.68129352	    -23.75715040	      5.00000000	      0.79820702	      3.24434094	      0.46300746	      0.58047136	    -10.84620794	     22.16154338	      2.00000000	      2.00000000	    -21.26520684	    -17.46412404	     -2.94614977	      0.00000000	      0.00000000	      0.00000000	      0.00000000	      0.00000000	      0.00000000	      0.00000000	      0.00000000	      0.00000000	     -0.00042092	      0.00000000	      0.00000000	      0.00000000	      0.00000000	      0.00000000	      0.00000000	      0.00000000	      0.00000000	      0.00000000	      0.00000000	      0.00000000	      0.00000000	      0.00000000	      0.00000000	      0.00000000	      0.00000000	      0.00000000	      0.00000000	      0.00000000	      0.00000000	      0.00000000
      2.50000000	     11.47102760	     12.51928959	     -8.59056639	      0.30757307	      0.74548808	      0.81509255	      2.27504355	    -13.04591980	      9.13730464	    -64.55795501	     -5.00000000	      5.00000000	     -4.35567830	     -5.00000000	      2.75644458	     -9.13883291	     21.25116239	     -2.00000000	      1.99028471	      5.68245210	     19.77624962	      1.83858738	    -23.20087876	      5.00000000	      0.92025603	      3.49619797	      0.34099140	      0.56273550	    -10.77041794	     22.13444236	      2.00000000	      2.00000000	    -21.41117251	    -17.12749232	     -3.07982143	      0.00000000	      0.00000000	      0.00000000	      0.00000000	      0.00000000	      0.00000000	      0.00000000	      0.00000000	      0.00000000	     -0.00042092	      0.00000000	      0.00000000	      0.00000000	      0.00000000	      0.00000000	      0.00000000	      0.00000000	      0.00000000	      0.00000000	      0.00000000	      0.00000000	      0.00000000	      0.00000000	      0.00000000	      0.00000000	      0.00000000	      0.00000000	      0.00000000	      0.00000000	      0.00000000	      0.00000000
      2.50500000	     11.48510581	     12.27830062	     -8.58176730	      0.31407716	      0.74673682	      0.81502566	      3.28065747	    -12.75147799	      9.30348742	    -64.57609485	     -5.00000000	      5.00000000	     -4.06400573	     -5.00000000	      2.76299151	     -9.60868158	     21.22502412	     -2.00000000	      1.98872866	      4.60676844	     19.69765268	      2.01426788	    -22.47151294	      5.00000000	      1.14370285	      3.83806488	      0.15745180	      0.57192977	    -10.64439004	     22.07558546	      2.00000000	      2.00000000	    -21.38185243	    -16.77101142	     -3.45866744	      0.00000000	      0.00000000	      0.00000000	      0.00000000	      0.00000000	      0.00000000	      0.00000000	      0.00000000	      0.00000000	     -0.00042092	      0.00000000	      0.00000000	      0.00000000	      0.00000000	      0.00000000	      0.00000000	      0.00000000	      0.00000000	      0.00000000	      0.00000000	      0.00000000	      0.00000000	      0.00000000	      0.00000000	      0.00000000	      0.00000000	      0.00000000	      0.00000000	      0.00000000	      0.00000000	      0.00000000
      2.51000000	     11.77744718	     11.97603916	     -8.43254272	      0.32025714	      0.74813507	      0.81495821	      3.88981297	    -12.39278450	      9.20132226	    -64.47721239	     -5.00000000	      5.00000000	     -3.26679654	     -5.00000000	      2.75471200	    -11.80256425	     21.06128033	     -2.00000000	      1.96327813	      3.30838400	     19.55193688	      1.75201803	    -21.86870600	      5.00000000	      1.48046923	      4.13892385	     -0.27647317	      0.85136675	    -10.18909986	     21.79407187	      2.00000000	      2.00000000	    -21.93475064	    -16.29111403	     -3.83083252	      0.00000000	      0.00000000	      0.00000000	      0.00000000	      0.00000000	      0.00000000	      0.00000000	      0.00000000	      0.00000000	     -0.00042092	      0.00000000	      0.00000000	      0.00000000	      0.00000000	      0.00000000	      0.00000000	      0.00000000	      0.00000000	      0.00000000	      0.00000000	      0.00000000	      0.00000000	      0.00000000	      0.00000000	      0.00000000	      0.00000000	      0.00000000	      0.00000000	      0.00000000	      0.00000000	      0.00000000
      2.51500000	     11.78369121	     11.77669033	     -8.33941975	      0.32635472	      0.74911111	      0.81491589	      4.97834453	    -12.15634770	      9.25121758	    -64.50769391	     -5.00000000	      5.00000000	     -3.21552484	     -5.00000000	      2.77062985	    -11.94406015	     21.03994219	     -2.00000000	      1.95840485	      2.36427214	     19.46894170	      1.92127853	    -21.29131715	      5.00000000	      1.64408069	      4.41440233	     -0.39242782	      0.84801434	    -10.11820574	     21.76225067	      2.00000000	      2.00000000	    -22.05521350	    -15.98295243	     -4.01007488	      0.00000000	      0.00000000	      0.00000000	      0.00000000	      0.00000000	      0.00000000	      0.00000000	      0.00000000	      0.00000000	     -0.00042092	      0.00000000	      0.00000000	      0.00000000	      0.00000000	      0.00000000	      0.00000000	      0.00000000	      0.00000000	      0.00000000	      0.00000000	      0.00000000	      0.00000000	      0.00000000	      0.00000000	      0.00000000	      0.00000000	      0.00000000	      0.00000000	      0.00000000	      0.00000000	      0.00000000
